<svg id="Layer_4" data-name="Layer 4" xmlns="http://www.w3.org/2000/svg" viewBox="0 0 128 128"><defs><style>.cls-1{fill:none;}.cls-2{fill:#ee2b4a;}.cls-3{fill:#51b848;}</style></defs><path class="cls-1" d="M74.69,44.43l-.55.12Z"/><path class="cls-1" d="M75.91,44.23l-.46.06Z"/><path class="cls-1" d="M73.48,44.75l-.56.17Z"/><polygon class="cls-2" points="22.86 99.94 22.67 110.32 22.35 127.27 33.06 111.03 43.16 127.66 43.48 110.71 43.69 99.88 33.91 95.73 22.86 99.94"/><polygon class="cls-1" points="14.34 98.45 14.26 98.48 14.34 98.45 14.35 97.94 14.34 98.45"/><polygon points="14.35 97.94 14.35 97.93 14.15 98.05 14.14 98.52 14.26 98.48 14.34 98.45 14.35 97.94"/><polygon points="14.15 98.05 14.35 97.93 14.35 97.93 14.5 84.07 14.15 98.05 14.15 98.05"/><path class="cls-3" d="M104.67,18.5A45.16,45.16,0,0,0,72.59,5h-.41C42.72,5,18.32,27,15.12,55.37c-.08.77-.1,1.55-.15,2.33-.09,1.2-.2,2.39-.21,3.61L14.5,84.07l-.15,13.86h0v.51L23,95.17,34,91l9.77,4.15,9.79,4.14.11-5.81.21-18.17c-.25-.4-.49-.81-.72-1.22A32.56,32.56,0,0,1,49,57.93a26.52,26.52,0,0,1,1.1-7.33c.25-.86.55-1.7.88-2.52a27,27,0,0,1,1.23-2.61,26.66,26.66,0,0,1,23.43-14h.18A21.77,21.77,0,0,1,97.45,53.38,17.87,17.87,0,0,1,79.6,71.1h-.12A14.87,14.87,0,0,1,64.86,56.28a12.18,12.18,0,0,1,3.64-8.61c.31-.31.64-.59,1-.86l.18-.12c.29-.22.59-.44.9-.63l.11-.06c.34-.21.69-.4,1-.58h0a12.21,12.21,0,0,1,1.18-.49h0l.56-.17.66-.2.55-.12.76-.14.46-.06a10.49,10.49,0,0,1,1.25-.08c5.64,0,8,4.64,7.94,10.27,0-1.55-2.79-3-3.88-4.13a5.77,5.77,0,0,0-4.09-1.72,7.51,7.51,0,0,0-5.25,2l-.28.23a7.8,7.8,0,0,0-2.32,5.5A10.43,10.43,0,0,0,79.51,66.68,13.44,13.44,0,0,0,93,53.35,17.33,17.33,0,0,0,75.81,35.89a22.38,22.38,0,0,0-17.15,8,23,23,0,0,0-2.24,3.21,22.37,22.37,0,0,0-3,10.9A29.19,29.19,0,0,0,54,63.82a28.09,28.09,0,0,0,2.14,6.39c.24.52.49,1,.77,1.54.42.76.86,1.5,1.35,2.22a29.25,29.25,0,0,0,3.33,4.08,28.12,28.12,0,0,0,20,8.43h.24a36,36,0,0,0,36-35.72A45.15,45.15,0,0,0,104.67,18.5Zm-76,67.22a8.21,8.21,0,1,1,8.2-8.2A8.16,8.16,0,0,1,28.69,85.72Z"/><polygon class="cls-3" points="14.35 97.94 14.35 97.93 14.35 97.93 14.35 97.94"/><polygon class="cls-3" points="14.35 97.93 14.35 97.93 14.5 84.07 14.35 97.93 14.35 97.93"/><path d="M107.82,15.39A49.62,49.62,0,0,0,72.62.53h-.44C38.27.53,10.57,27.7,10.34,61.27L10.1,82.21,9.83,92.63,9.6,105l13.26-5,11-4.2,9.78,4.14,14.16,6,.33-25c.1.1.18.21.27.3A32.55,32.55,0,0,0,81.54,90.9h.28A40.43,40.43,0,0,0,122.2,50.8,49.6,49.6,0,0,0,107.82,15.39Zm-26,71.1h-.24a28.12,28.12,0,0,1-20-8.43A29.25,29.25,0,0,1,58.27,74c-.49-.72-.93-1.46-1.35-2.22-.28-.51-.53-1-.77-1.54A28.09,28.09,0,0,1,54,63.82,29.19,29.19,0,0,1,53.44,58a22.37,22.37,0,0,1,3-10.9,23,23,0,0,1,2.24-3.21,22.38,22.38,0,0,1,17.15-8A17.33,17.33,0,0,1,93,53.35,13.44,13.44,0,0,1,79.51,66.68,10.43,10.43,0,0,1,69.28,56.31a7.8,7.8,0,0,1,2.32-5.5l.28-.23a7.51,7.51,0,0,1,5.25-2,5.77,5.77,0,0,1,4.09,1.72c1.09,1.1,3.89,2.58,3.88,4.13,0-5.63-2.3-10.23-7.94-10.27-.42,0-.83,0-1.25.08l-.46.06-.76.14-.55.12-.66.2-.56.17c-.4.15-.8.31-1.18.49h0c-.36.18-.71.37-1,.58l-.11.06c-.31.19-.61.41-.9.63l-.18.12c-.33.27-.66.55-1,.86a12.18,12.18,0,0,0-3.64,8.61A14.87,14.87,0,0,0,79.48,71.1h.12A17.87,17.87,0,0,0,97.45,53.38,21.77,21.77,0,0,0,75.84,31.47h-.18a26.66,26.66,0,0,0-23.43,14A27,27,0,0,0,51,48.08c-.33.82-.63,1.66-.88,2.52A26.52,26.52,0,0,0,49,57.93a32.56,32.56,0,0,0,4.14,16.13c.23.41.47.82.72,1.22l-.21,18.17-.11,5.81-9.79-4.14L34,91l-11,4.2-8.61,3.28-.08,0-.12,0v-.47l.35-14,.26-22.76c0-1.22.12-2.41.21-3.61,0-.78.07-1.56.15-2.33C18.32,27,42.72,5,72.18,5h.41a45.51,45.51,0,0,1,45.19,45.82A36,36,0,0,1,81.82,86.49Z"/><polygon points="14.15 98.05 14.15 98.05 14.14 98.52 14.26 98.48 14.14 98.52 14.15 98.05"/><polygon points="14.15 98.05 14.5 84.07 14.15 98.05 14.15 98.05 14.15 98.05"/><path d="M75.45,44.29l-.76.14Z"/><path d="M77.16,44.15a10.49,10.49,0,0,0-1.25.08C76.33,44.19,76.74,44.15,77.16,44.15Z"/><path d="M72.92,44.92a12.21,12.21,0,0,0-1.18.49c.38-.18.78-.34,1.18-.49Z"/><path d="M74.14,44.55l-.66.2Z"/><path d="M28.69,69.31a8.21,8.21,0,1,0,8.2,8.21A8.15,8.15,0,0,0,28.69,69.31Z"/></svg>